<?xml version="1.0" encoding="UTF-8" standalone="no"?>
<!-- Created with Inkscape (http://www.inkscape.org/) -->

<svg
   version="1.1"
   id="svg1"
   width="32"
   height="32"
   viewBox="0 0 32 32"
   sodipodi:docname="code.svg"
   inkscape:version="1.3.2 (091e20e, 2023-11-25, custom)"
   xmlns:inkscape="http://www.inkscape.org/namespaces/inkscape"
   xmlns:sodipodi="http://sodipodi.sourceforge.net/DTD/sodipodi-0.dtd"
   xmlns="http://www.w3.org/2000/svg"
   xmlns:svg="http://www.w3.org/2000/svg">
  <defs
     id="defs1" />
  <sodipodi:namedview
     id="namedview1"
     pagecolor="#505050"
     bordercolor="#eeeeee"
     borderopacity="1"
     inkscape:showpageshadow="0"
     inkscape:pageopacity="0"
     inkscape:pagecheckerboard="0"
     inkscape:deskcolor="#505050"
     inkscape:zoom="24.28125"
     inkscape:cx="16"
     inkscape:cy="16"
     inkscape:window-width="1920"
     inkscape:window-height="991"
     inkscape:window-x="-9"
     inkscape:window-y="-9"
     inkscape:window-maximized="1"
     inkscape:current-layer="g1" />
  <g
     inkscape:groupmode="layer"
     inkscape:label="Image"
     id="g1">
    <path
       style="fill:#000000"
       d="M 14.625,31.494031 C 12.610081,31.311393 10.814696,30.787656 8.9530927,29.839465 5.7890234,28.227873 3.1564554,25.420252 1.7522236,22.159771 0.37648644,18.965452 0.12700367,15.189782 1.0744534,11.902401 1.8485916,9.2163622 2.9642461,7.3113123 4.9375,5.3060073 c 2.4427215,-2.482398 5.128238,-3.9238242 8.360671,-4.48751336 1.399238,-0.2440067 3.975131,-0.24911415 5.342908,-0.0105939 6.301428,1.09887712 11.30967,6.04393162 12.566283,12.40773892 0.290918,1.473282 0.291654,4.21686 0.0015,5.685587 -1.09603,5.548456 -5.049982,10.092518 -10.306073,11.84421 -1.980558,0.660058 -4.25822,0.931657 -6.277814,0.748595 z M 14.187696,23.59375 c 0.256582,-0.22093 0.888086,-1.78915 2.94447,-7.31203 1.483692,-3.984786 2.616112,-7.2069858 2.613859,-7.4374998 -0.0022,-0.2236961 -0.0725,-0.4959697 -0.15625,-0.6050523 C 19.200057,7.7315749 18.340487,7.5950149 17.887643,7.96875 17.534002,8.2606123 12.375,22.086656 12.375,22.742547 c 0,0.982547 1.074287,1.487009 1.812696,0.851203 z m -2.928081,-2.834135 c 0.387966,-0.387965 0.465083,-0.829478 0.226907,-1.299083 -0.07616,-0.150167 -0.905121,-1.046495 -1.8421308,-1.991838 L 7.9407376,15.749888 9.7828688,13.904681 C 11.548641,12.13596 11.625,12.038492 11.625,11.553307 c 0,-0.790411 -0.662179,-1.324064 -1.40625,-1.133304 -0.154688,0.03966 -1.4771878,1.270299 -2.9388895,2.734758 L 4.622221,15.817413 7.2865053,18.471206 C 9.8120254,20.986782 9.9753583,21.125 10.42251,21.125 c 0.354709,0 0.562356,-0.09063 0.837105,-0.365385 z M 24.8409,18.468005 27.506046,15.81101 24.777774,13.093005 C 22.550148,10.873762 21.986476,10.375 21.706043,10.375 c -0.927735,0 -1.515378,0.831746 -1.162596,1.645531 0.09942,0.229333 0.945162,1.174788 1.879432,2.101011 l 1.698672,1.684043 -1.810776,1.825337 C 20.72775,19.226677 20.5,19.507209 20.5,19.861347 c 0,0.800156 0.425342,1.253593 1.181627,1.259678 0.477999,0.0038 0.58111,-0.08274 3.159273,-2.65302 z"
       id="path1" />
  </g>
</svg>
