<?xml version="1.0" encoding="UTF-8" standalone="no"?>
<svg
   viewBox="0 0 16 16"
   width="32px"
   height="32px"
   version="1.1"
   id="svg1"
   sodipodi:docname="instagram.svg"
   inkscape:version="1.3.2 (091e20e, 2023-11-25, custom)"
   xmlns:inkscape="http://www.inkscape.org/namespaces/inkscape"
   xmlns:sodipodi="http://sodipodi.sourceforge.net/DTD/sodipodi-0.dtd"
   xmlns="http://www.w3.org/2000/svg"
   xmlns:svg="http://www.w3.org/2000/svg">
  <defs
     id="defs1" />
  <sodipodi:namedview
     id="namedview1"
     pagecolor="#505050"
     bordercolor="#eeeeee"
     borderopacity="1"
     inkscape:showpageshadow="0"
     inkscape:pageopacity="0"
     inkscape:pagecheckerboard="0"
     inkscape:deskcolor="#505050"
     inkscape:zoom="32.71875"
     inkscape:cx="16"
     inkscape:cy="16"
     inkscape:window-width="2400"
     inkscape:window-height="1261"
     inkscape:window-x="2391"
     inkscape:window-y="-9"
     inkscape:window-maximized="1"
     inkscape:current-layer="svg1" />
  <path
     d="M 4.773438 1 C 2.695313 1 1 2.695313 1 4.773438 L 1 10.230469 C 1 12.304688 2.695313 14 4.773438 14 L 10.230469 14 C 12.304688 14 14 12.304688 14 10.226563 L 14 4.773438 C 14 2.695313 12.304688 1 10.226563 1 Z M 4.773438 2 L 10.226563 2 C 11.765625 2 13 3.234375 13 4.773438 L 13 10.226563 C 13 11.765625 11.765625 13 10.230469 13 L 4.773438 13 C 3.234375 13 2 11.765625 2 10.230469 L 2 4.773438 C 2 3.234375 3.234375 2 4.773438 2 Z M 11.5 3 C 11.222656 3 11 3.222656 11 3.5 C 11 3.777344 11.222656 4 11.5 4 C 11.777344 4 12 3.777344 12 3.5 C 12 3.222656 11.777344 3 11.5 3 Z M 7.5 4 C 5.574219 4 4 5.574219 4 7.5 C 4 9.425781 5.574219 11 7.5 11 C 9.425781 11 11 9.425781 11 7.5 C 11 5.574219 9.425781 4 7.5 4 Z M 7.5 5 C 8.886719 5 10 6.113281 10 7.5 C 10 8.886719 8.886719 10 7.5 10 C 6.113281 10 5 8.886719 5 7.5 C 5 6.113281 6.113281 5 7.5 5 Z"
     id="path1"
     style="fill:#000000;fill-opacity:1" />
</svg>
